<svg xmlns="http://www.w3.org/2000/svg" viewBox="0 0 128 128" role="img" aria-labelledby="title description" shape-rendering="crispEdges">
  <title id="title">Pave</title>
  <desc id="description">A mint pixel-art P and one amber cursor pixel on a stepped dark tile.</desc>
  <path d="M16 0h96v8h8v8h8v96h-8v8h-8v8H16v-8H8v-8H0V16h8V8h8z" fill="#10262d"/>
  <path d="M32 24h56v8h8v8h8v32h-8v8h-8v8H48v24H32V24zM48 40v32h40V40H48z" fill="#285c59" fill-rule="evenodd" transform="translate(8 8)"/>
  <path d="M32 24h56v8h8v8h8v32h-8v8h-8v8H48v24H32V24zM48 40v32h40V40H48z" fill="#9af0d3" fill-rule="evenodd"/>
  <path d="M96 104h8v8h-8z" fill="#ffbf8c"/>
</svg>
